<svg width="34" height="27" viewBox="0 0 34 27" fill="none" xmlns="http://www.w3.org/2000/svg">
<path d="M33.4794 3.19979C32.2617 3.73938 30.9535 4.10396 29.5783 4.26875C30.9973 3.4197 32.0589 2.08339 32.565 0.509167C31.2319 1.30103 29.7728 1.85841 28.2512 2.15708C27.2281 1.0646 25.8728 0.340476 24.3959 0.09715C22.919 -0.146176 21.4031 0.104905 20.0835 0.811411C18.7639 1.51792 17.7145 2.64032 17.0981 4.00436C16.4818 5.3684 16.3331 6.89776 16.675 8.355C13.9737 8.21937 11.3311 7.51726 8.91874 6.29424C6.50636 5.07121 4.3781 3.35461 2.67208 1.25583C2.08875 2.26208 1.75333 3.42875 1.75333 4.67125C1.75268 5.78979 2.02813 6.89119 2.55524 7.87774C3.08235 8.86428 3.84482 9.70547 4.775 10.3267C3.69623 10.2923 2.64127 10.0009 1.69791 9.47646V9.56396C1.6978 11.1327 2.24046 12.6533 3.23381 13.8675C4.22715 15.0817 5.61 15.9149 7.14771 16.2256C6.14697 16.4965 5.09778 16.5364 4.07937 16.3423C4.51322 17.6921 5.35832 18.8725 6.49637 19.7182C7.63441 20.5639 9.00842 21.0326 10.426 21.0585C8.01955 22.9477 5.04754 23.9724 1.98812 23.9679C1.44618 23.9681 0.904691 23.9364 0.366455 23.8731C3.47194 25.8698 7.08695 26.9295 10.779 26.9254C23.2769 26.9254 30.1092 16.5742 30.1092 7.59667C30.1092 7.305 30.1019 7.01042 30.0888 6.71875C31.4177 5.75767 32.5649 4.56756 33.4765 3.20417L33.4794 3.19979Z" fill="#015351"/>
</svg>
