<svg width="33" height="33" viewBox="0 0 33 33" fill="none" xmlns="http://www.w3.org/2000/svg">
<path fill-rule="evenodd" clip-rule="evenodd" d="M9.8865 0.554593C11.5971 0.475843 12.1425 0.458344 16.5 0.458344C20.8575 0.458344 21.403 0.477302 23.1121 0.554593C24.8213 0.631885 25.988 0.904594 27.0088 1.2998C28.0777 1.70376 29.0475 2.33522 29.8496 3.15188C30.6663 3.95251 31.2963 4.92084 31.6988 5.99126C32.0955 7.01209 32.3667 8.17876 32.4455 9.88501C32.5242 11.5986 32.5417 12.144 32.5417 16.5C32.5417 20.8575 32.5227 21.4029 32.4455 23.1136C32.3682 24.8198 32.0955 25.9865 31.6988 27.0073C31.2963 28.0779 30.6652 29.0478 29.8496 29.8496C29.0475 30.6663 28.0777 31.2963 27.0088 31.6988C25.988 32.0954 24.8213 32.3667 23.115 32.4454C21.403 32.5242 20.8575 32.5417 16.5 32.5417C12.1425 32.5417 11.5971 32.5227 9.8865 32.4454C8.18025 32.3681 7.01358 32.0954 5.99275 31.6988C4.92222 31.2962 3.95228 30.6652 3.15046 29.8496C2.33434 29.0485 1.70279 28.079 1.29983 27.0088C0.904624 25.9879 0.633374 24.8213 0.554624 23.115C0.475874 21.4015 0.458374 20.8561 0.458374 16.5C0.458374 12.1425 0.477332 11.5971 0.554624 9.88793C0.631916 8.17876 0.904624 7.01209 1.29983 5.99126C1.70339 4.92096 2.33542 3.95151 3.15192 3.15043C3.9526 2.33449 4.92156 1.70295 5.99129 1.2998C7.01212 0.904594 8.17879 0.633343 9.88504 0.554593H9.8865ZM22.9823 3.44209C21.2907 3.3648 20.7832 3.34876 16.5 3.34876C12.2169 3.34876 11.7094 3.3648 10.0177 3.44209C8.45296 3.51355 7.60421 3.77459 7.03837 3.9948C6.29025 4.28647 5.75504 4.63209 5.19358 5.19355C4.66136 5.71134 4.25176 6.34167 3.99483 7.03834C3.77462 7.60418 3.51358 8.45293 3.44212 10.0177C3.36483 11.7094 3.34879 12.2169 3.34879 16.5C3.34879 20.7831 3.36483 21.2906 3.44212 22.9823C3.51358 24.5471 3.77462 25.3958 3.99483 25.9617C4.2515 26.6573 4.66129 27.2888 5.19358 27.8065C5.71129 28.3388 6.34275 28.7486 7.03837 29.0052C7.60421 29.2254 8.45296 29.4865 10.0177 29.5579C11.7094 29.6352 12.2155 29.6513 16.5 29.6513C20.7846 29.6513 21.2907 29.6352 22.9823 29.5579C24.5471 29.4865 25.3959 29.2254 25.9617 29.0052C26.7098 28.7136 27.245 28.3679 27.8065 27.8065C28.3388 27.2888 28.7486 26.6573 29.0052 25.9617C29.2255 25.3958 29.4865 24.5471 29.558 22.9823C29.6352 21.2906 29.6513 20.7831 29.6513 16.5C29.6513 12.2169 29.6352 11.7094 29.558 10.0177C29.4865 8.45293 29.2255 7.60418 29.0052 7.03834C28.7136 6.29022 28.368 5.75501 27.8065 5.19355C27.2887 4.66136 26.6584 4.25178 25.9617 3.9948C25.3959 3.77459 24.5471 3.51355 22.9823 3.44209ZM14.4511 21.4452C15.5954 21.9216 16.8696 21.9858 18.056 21.6271C19.2424 21.2684 20.2675 20.5088 20.9561 19.4783C21.6448 18.4477 21.9543 17.21 21.8318 15.9766C21.7093 14.7432 21.1623 13.5906 20.2844 12.7156C19.7248 12.1563 19.0481 11.7281 18.303 11.4617C17.558 11.1953 16.7632 11.0974 15.9758 11.1751C15.1884 11.2527 14.428 11.504 13.7493 11.9108C13.0707 12.3176 12.4907 12.8698 12.0511 13.5277C11.6115 14.1856 11.3232 14.9327 11.207 15.7154C11.0909 16.498 11.1496 17.2967 11.3792 18.0539C11.6087 18.8111 12.0032 19.508 12.5344 20.0944C13.0656 20.6808 13.7202 21.1422 14.4511 21.4452ZM10.6696 10.6696C11.4353 9.90393 12.3443 9.29658 13.3446 8.8822C14.345 8.46783 15.4172 8.25456 16.5 8.25456C17.5828 8.25456 18.6551 8.46783 19.6554 8.8822C20.6558 9.29658 21.5648 9.90393 22.3305 10.6696C23.0961 11.4353 23.7035 12.3442 24.1178 13.3446C24.5322 14.345 24.7455 15.4172 24.7455 16.5C24.7455 17.5828 24.5322 18.655 24.1178 19.6554C23.7035 20.6558 23.0961 21.5648 22.3305 22.3304C20.7841 23.8767 18.6869 24.7455 16.5 24.7455C14.3132 24.7455 12.2159 23.8767 10.6696 22.3304C9.1233 20.7841 8.25459 18.6868 8.25459 16.5C8.25459 14.3132 9.1233 12.2159 10.6696 10.6696ZM26.5742 9.48251C26.7639 9.30353 26.9158 9.08829 27.0209 8.84956C27.126 8.61082 27.1821 8.35342 27.1859 8.09262C27.1897 7.83181 27.1411 7.57289 27.043 7.33119C26.945 7.08949 26.7994 6.86992 26.615 6.68548C26.4305 6.50105 26.211 6.35549 25.9693 6.25743C25.7276 6.15937 25.4687 6.11081 25.2078 6.11461C24.947 6.11841 24.6896 6.17451 24.4509 6.27957C24.2122 6.38463 23.9969 6.53652 23.818 6.72626C23.4699 7.09526 23.2793 7.5854 23.2867 8.09262C23.2941 8.59984 23.4989 9.08421 23.8576 9.44291C24.2163 9.8016 24.7006 10.0064 25.2078 10.0138C25.7151 10.0212 26.2052 9.8306 26.5742 9.48251Z" fill="#015351"/>
</svg>
